<?xml version="1.0" encoding="utf-8"?>
<!-- Generator: Adobe Illustrator 25.2.3, SVG Export Plug-In . SVG Version: 6.00 Build 0)  -->
<svg version="1.1" id="レイヤー_1" xmlns="http://www.w3.org/2000/svg" xmlns:xlink="http://www.w3.org/1999/xlink" x="0px"
	 y="0px" viewBox="0 0 335 302" style="enable-background:new 0 0 335 302;" xml:space="preserve">
<style type="text/css">
	.st0{fill:#FFFFFF;}
</style>
<g>
	<path class="st0" d="M96.2,69c-0.6,0-1,0.4-1,1v20c0,0.6,0.4,1,1,1h85c0.6,0,1-0.4,1-1V70c0-0.6-0.4-1-1-1H96.2z"/>
	<path class="st0" d="M148,180H90.2c-0.4,0-0.7,0.2-0.9,0.5l-12.1,20c-0.2,0.3-0.2,0.7,0,1s0.5,0.5,0.9,0.5H148
		c28.1,0,51-22.9,51-51c0-28.1-22.9-51-51-51h-33.6H91H42.3c-0.4,0-0.8,0.3-1,0.7c-2.3,6.9-4,13.1-5.6,20.1c-0.1,0.3,0,0.6,0.2,0.8
		c0.2,0.2,0.5,0.4,0.8,0.4h40.4l-39.3,65.3c-0.1,0.1-0.2,0.2-0.3,0.2c-0.1,0.1-0.2,0.3-0.2,0.5L0.1,249.6c-0.2,0.3-0.2,0.7,0,1
		c0.2,0.3,0.5,0.5,0.9,0.5h0.1h23.3h0.1c0.4,0,0.7-0.2,0.9-0.5L46.9,215c24.7,52.6,77.7,87,136.3,87c1.7,0,3.4,0,5.5-0.1
		c0.5,0,1-0.5,1-1V296v-15.1V261c0-28.1-22.9-51-51-51c-21.1,0-39.3,12.9-47,31.3c-11.7-11.9-20.8-25.6-27.1-40.7l-3.1-9.9L103,122
		h45c12.1,0,22.5,7.4,26.8,18h-60.4c-0.4,0-0.7,0.2-0.9,0.5l-12.1,20c-0.2,0.3-0.2,0.7,0,1c0.2,0.3,0.5,0.5,0.9,0.5h72.5
		C170.5,172.6,160.1,180,148,180z M138.7,232c16,0,29,13,29,29v18c-20.8-2.5-40.5-10.1-57.7-22.1C112,242.8,124.1,232,138.7,232z"/>
	<path class="st0" d="M304.2,60C284.9,34.5,257.5,15.4,227,6.3c-0.3-0.1-0.6,0-0.9,0.2c-0.3,0.2-0.4,0.5-0.4,0.8v21
		c0,0.4,0.3,0.8,0.7,0.9c18.3,6.4,34.7,16.7,48.5,30.6c24.4,24.4,37.8,56.8,37.8,91.2c0,34.4-13.4,66.9-37.8,91.2
		c-18.3,18.3-41.2,30.5-66.4,35.4c-0.5,0.1-0.8,0.5-0.8,1v20.3c0,0.3,0.1,0.6,0.4,0.8c0.2,0.2,0.4,0.2,0.6,0.2c0.1,0,0.1,0,0.2,0
		c34.8-5.8,66.7-23.9,89.7-50.9c23.3-27.3,36.1-62.1,36.1-98C334.7,117.8,324.2,86.4,304.2,60z"/>
	<path class="st0" d="M33.7,88c19.8,0,46.4-11.5,71.1-30.6c6.7-5.2,23.2-18.9,32.8-34.4h4.4c6.7,8.4,16.9,17.5,30.4,27
		c10.2,7.3,23.4,15.2,35.3,20.4V203c0,3.3,4.1,8,11,8c6.9,0,11-5.4,11-8V75.1V63.8c0-4.9-2.1-9.3-7.2-11.1
		c-8.4-2.9-22.4-10.1-36.8-20.3c-23.1-16.3-30.8-28.8-31-31.5c0-0.5-0.5-0.9-1-0.9h-30c-0.6,0-1,0.4-1,1c0,5.9-10,22.4-31.4,39
		C70.7,56,48.6,66,33.7,66c-0.6,0-1,0.4-1,1v20C32.7,87.6,33.1,88,33.7,88z"/>
</g>
</svg>
