<?xml version="1.0" encoding="utf-8"?>
<!-- Generator: Adobe Illustrator 25.2.3, SVG Export Plug-In . SVG Version: 6.00 Build 0)  -->
<svg version="1.1" id="レイヤー_1" xmlns="http://www.w3.org/2000/svg" xmlns:xlink="http://www.w3.org/1999/xlink" x="0px"
	 y="0px" viewBox="0 0 338 305" style="enable-background:new 0 0 338 305;" xml:space="preserve">
<style type="text/css">
	.st0{fill:#FFFFFF;}
	.st1{fill:#F4FD46;}
</style>
<g id="レイヤー_2_1_">
</g>
<g id="レイヤー_1_1_">
	<g>
		<path class="st0" d="M97.7,69c-1.4,0-2.5,1.1-2.5,2.5v20c0,1.4,1.1,2.5,2.5,2.5h85c1.4,0,2.5-1.1,2.5-2.5v-20
			c0-1.4-1.1-2.5-2.5-2.5H97.7z M182.2,91h-84V72h84V91z"/>
		<path class="st0" d="M149.5,180H91.7c-0.9,0-1.7,0.5-2.1,1.2l-12.1,20c-0.5,0.8-0.5,1.7,0,2.5c0.4,0.8,1.3,1.3,2.2,1.3h69.9
			c28.9,0,52.5-23.6,52.5-52.5S178.4,100,149.5,100H43.8c-1.1,0-2,0.7-2.4,1.7c-2.3,7-4,13.2-5.6,20.2c-0.2,0.7,0,1.5,0.5,2.1
			s1.2,0.9,2,0.9H76l-38.2,63.2l10.5,31.4c25.4,52,78.7,85.5,136.5,85.5c1.7,0,3.5,0,5.6-0.1c1.4,0,2.4-1.1,2.4-2.5v-39.9
			c0-28.9-23.6-52.5-52.5-52.5c-20.5,0-38.9,11.8-47.5,30.2c-10.8-11.3-19.2-24.3-25.2-38.5l-2.9-9.4l40.7-67.3h44.2
			c10.4,0,19.8,5.8,24.5,15h-58c-0.9,0-1.7,0.5-2.1,1.2l-12.1,20c-0.5,0.8-0.5,1.7,0,2.5c0.4,0.8,1.3,1.3,2.2,1.3h70.1
			C169.3,174.2,159.9,180,149.5,180z M177.7,164.1l0.9-2.1h-73.8l11.5-19h62.3l-0.9-2.1c-4.7-11.5-15.8-18.9-28.2-18.9h-45.9
			l-42.3,69.9l3.4,10.7v0.1c6.4,15.3,15.6,29.1,27.4,41.1l1.6,1.6l0.9-2.1c7.7-18.5,25.7-30.4,45.7-30.4c27.3,0,49.5,22.2,49.5,49.5
			v39.4c-1.8,0.1-3.4,0.1-5,0.1c-57.6,0-110.6-33.9-135-86.3l-1.2-2.5l-8.8-22.3l41.6-68.9H38.9c1.5-6.6,3.2-12.5,5.3-19h105.3
			c27.3,0,49.5,22.2,49.5,49.5S176.8,202,149.5,202h-69L92,183h57.5C161.9,183,172.9,175.6,177.7,164.1z"/>
		<path class="st0" d="M169,282.1l1.7,0.2v-19.8c0-16.8-13.7-30.5-30.5-30.5c-15.1,0-28.1,11.3-30.2,26.2l-0.1,0.9l0.8,0.5
			C127.9,271.8,148.1,279.5,169,282.1z M140.2,235c15.2,0,27.5,12.3,27.5,27.5v16.4c-19.5-2.6-38.3-9.9-54.6-21.1
			C115.4,244.7,126.9,235,140.2,235z"/>
		<path class="st0" d="M306.9,60.6c-19.5-25.8-47.2-45-78-54.2c-0.8-0.2-1.6-0.1-2.2,0.4c-0.6,0.5-1,1.2-1,2v21c0,1.1,0.7,2,1.7,2.4
			c18.1,6.3,34.2,16.5,48,30.2c24.1,24.1,37.3,56.1,37.3,90.2s-13.3,66.1-37.3,90.2c-18.1,18.1-40.8,30.2-65.6,35
			c-1.2,0.2-2,1.3-2,2.5v20.3c0,0.7,0.3,1.4,0.9,1.9c0.5,0.4,1,0.6,1.6,0.6c0.1,0,0.3,0,0.4,0c35.1-5.9,67.3-24.1,90.6-51.4
			c23.5-27.5,36.5-62.7,36.5-99C337.7,119,327.1,87.2,306.9,60.6z M298.9,249.5c-22.7,26.6-54,44.4-88.2,50.3v-19.3
			c25.3-5,48.4-17.3,66.8-35.7c24.6-24.6,38.2-57.4,38.2-92.3s-13.6-67.6-38.2-92.3c-14-14-30.4-24.3-48.8-30.8v-20
			c29.9,9.1,56.8,27.9,75.8,53c19.8,26.1,30.2,57.3,30.2,90.1C334.7,188.1,322,222.5,298.9,249.5z"/>
		<path class="st0" d="M35.2,91c20.2,0,47.1-11.6,72.1-31c6.6-5.1,22.9-18.7,32.7-34h2.9c6.8,8.3,17,17.3,30.2,26.7
			c11.5,8.2,24.1,15.5,34.7,20.2v131.6c0,4.5,5.1,9.5,12.5,9.5c7.8,0,12.5-6.2,12.5-9.5V65.3c0-6.1-3-10.7-8.2-12.5
			c-7.4-2.5-20.9-9.2-36.4-20.1C164,15.6,157.9,3.8,157.8,2.3C157.6,1,156.5,0,155.2,0h-30c-1.4,0-2.5,1.1-2.5,2.5
			c0,4.8-9,20.9-30.8,37.8C71.5,56.2,49.8,66,35.2,66c-1.4,0-2.5,1.1-2.5,2.5v20C32.7,89.9,33.8,91,35.2,91z M35.7,69
			c15.2-0.2,37.4-10.3,58.1-26.3C115.2,26,125.2,9.7,125.7,3h29.1c0.9,4,9.4,16.6,31.6,32.1C202.2,46.2,216,53,223.6,55.6
			c5.4,1.9,6.2,6.9,6.2,9.7v139.2c0,1.6-3.4,6.5-9.5,6.5c-6.2,0-9.5-4.2-9.5-6.5v-133l-0.2-0.3v-0.1l-1.2,0.8l0.7-1.3l-5.5-3.2
			l0.6,0.9c-9.5-4.6-20.2-11-30.2-18.1c-13.3-9.4-23.5-18.4-30.1-26.7l-0.5-0.6h-6l-0.4,0.7c-9.4,15.3-25.8,28.8-32.4,34
			C81.2,76.5,55.2,87.8,35.7,88V69z"/>
	</g>
	<path class="st1" d="M39.4,185.7l-39,64.6c-0.5,0.8-0.5,1.7,0,2.5c0.4,0.8,1.3,1.3,2.2,1.3H26c0.9,0,1.7-0.5,2.1-1.2l22-36.4
		L45,202L39.4,185.7z"/>
</g>
</svg>
