<?xml version="1.0" encoding="utf-8"?>
<!-- Generator: Adobe Illustrator 25.2.3, SVG Export Plug-In . SVG Version: 6.00 Build 0)  -->
<svg version="1.1" id="レイヤー_1" xmlns="http://www.w3.org/2000/svg" xmlns:xlink="http://www.w3.org/1999/xlink" x="0px"
	 y="0px" viewBox="0 0 335 302" style="enable-background:new 0 0 335 302;" xml:space="preserve">
<style type="text/css">
	.st0{fill:#F4FD46;}
	.st1{fill:#B20000;}
</style>
<path d="M181.2,69h-85c-0.6,0-1,0.4-1,1v20c0,0.6,0.4,1,1,1h85c0.6,0,1-0.4,1-1V70C182.2,69.4,181.8,69,181.2,69z"/>
<g>
	<path d="M148,100H42.3c-0.4,0-0.8,0.3-1,0.7c-2.3,6.9-4,13.1-5.6,20.1c-0.1,0.3,0,0.6,0.2,0.8s0.5,0.4,0.8,0.4H148
		c16,0,29,13,29,29s-13,29-29,29H90.2c-0.4,0-0.7,0.2-0.9,0.5l-12.1,20c-0.2,0.3-0.2,0.7,0,1s0.5,0.5,0.9,0.5H148
		c28.1,0,51-22.9,51-51S176.1,100,148,100z"/>
	<path d="M187.9,140h-73.5c-0.4,0-0.7,0.2-0.9,0.5l-12.1,20c-0.2,0.3-0.2,0.7,0,1s0.5,0.5,0.9,0.5h85.6c0.6,0,1-0.4,1-1v-20
		C188.9,140.4,188.5,140,187.9,140z"/>
</g>
<path d="M304.2,60C284.9,34.5,257.5,15.4,227,6.3c-0.3-0.1-0.6,0-0.9,0.2c-0.3,0.2-0.4,0.5-0.4,0.8v21c0,0.4,0.3,0.8,0.7,0.9
	c18.3,6.4,34.7,16.7,48.5,30.6c24.4,24.4,37.8,56.8,37.8,91.2s-13.4,66.9-37.8,91.2c-18.3,18.3-41.2,30.5-66.4,35.4
	c-0.5,0.1-0.8,0.5-0.8,1v20.3c0,0.3,0.1,0.6,0.4,0.8c0.2,0.2,0.4,0.2,0.6,0.2c0.1,0,0.1,0,0.2,0c34.8-5.8,66.7-23.9,89.7-50.9
	c23.3-27.3,36.1-62.1,36.1-98C334.7,117.8,324.2,86.4,304.2,60z"/>
<path d="M115.3,100.5c-0.2-0.3-0.5-0.5-0.9-0.5H91c-0.4,0-0.7,0.2-0.9,0.5l-52.6,87l9.4,27.5l10.4-17.2c0.1-0.1,0.1-0.2,0.1-0.3
	l58-96C115.5,101.2,115.5,100.8,115.3,100.5z"/>
<path d="M138.7,210c-28.1,0-51,22.9-51,51v5c0,0.6,0.4,1,1,1h20c0.6,0,1-0.4,1-1v-5c0-16,13-29,29-29s29,13,29,29v35
	c0,0.6,0.4,1,1,1h20c0.6,0,1-0.4,1-1v-35C189.7,232.9,166.8,210,138.7,210z"/>
<path class="st0" d="M47.9,212.4c-1.7-3.8-3.2-7.8-4.9-12.6l-3.7-11.9c-0.1-0.4-0.4-0.7-0.8-0.7c-0.4,0-0.8,0.1-1,0.5L0.1,249.6
	c-0.2,0.3-0.2,0.7,0,1s0.5,0.5,0.9,0.5h23.4c0.4,0,0.7-0.2,0.9-0.5l22.6-37.3C48,213,48,212.7,47.9,212.4z"/>
<path d="M189.4,280.1c-0.2-0.2-0.5-0.3-0.7-0.3c-2.1,0.1-3.8,0.1-5.4,0.1c-34.2,0-66.4-13.4-90.8-37.8C80.4,230,71,216,64.6,200.6
	l-4.4-14c-0.1-0.4-0.6-0.7-1-0.7l-20.9,1.2c-0.3,0-0.6,0.2-0.8,0.4s-0.2,0.6-0.2,0.8l3.9,12.9c21.4,60.3,78.4,100.8,142,100.8
	c1.7,0,3.4,0,5.5-0.1c0.5,0,1-0.5,1-1v-20C189.7,280.6,189.6,280.3,189.4,280.1z"/>
<g>
	<g>
		<path d="M222.5,52.7c-8.4-2.9-22.4-10.1-36.8-20.3c-23.1-16.3-30.8-28.8-31-31.5c0-0.5-0.5-0.9-1-0.9h-30c-0.6,0-1,0.4-1,1
			c0,5.9-10,22.4-31.4,39C70.7,56,48.6,66,33.7,66c-0.6,0-1,0.4-1,1v20c0,0.6,0.4,1,1,1c19.8,0,46.4-11.5,71.1-30.6
			c6.7-5.2,23.2-18.9,32.8-34.4h4.4c6.7,8.4,16.9,17.5,30.4,27c10.2,7.3,23.4,15.2,35.3,20.4V203c0,3.3,4.1,8,11,8s11-5.4,11-8V75.1
			V63.8C229.7,58.9,227.6,54.5,222.5,52.7z"/>
	</g>
	<path class="st1" d="M207.7,70.4L207.7,70.4L207.7,70.4L207.7,70.4z"/>
</g>
</svg>
