<?xml version="1.0" encoding="utf-8"?>
<!-- Generator: Adobe Illustrator 25.2.3, SVG Export Plug-In . SVG Version: 6.00 Build 0)  -->
<svg version="1.1" id="レイヤー_1" xmlns="http://www.w3.org/2000/svg" xmlns:xlink="http://www.w3.org/1999/xlink" x="0px"
	 y="0px" viewBox="0 0 427.5 95" style="enable-background:new 0 0 427.5 95;" xml:space="preserve">
<style type="text/css">
	.st0{fill:#FFFFFF;}
</style>
<rect y="2.5" class="st0" width="48" height="90"/>
<polygon class="st0" points="201,2.5 187,48.5 173,2.5 117,2.5 117,92.5 159,92.5 159,45.5 174,91.5 187,91.5 200,91.5 215,45.5 
	215,92.5 257,92.5 257,2.5 "/>
<path class="st0" d="M386.6,36c-9.9,0-15.6-0.6-15.6-3.5c0-2.7,5.3-3.5,16.4-3.5c11.1,0,36.6,3,36.6,3V5c0,0-12.2-5-43-5
	c-15.9,0-28.3,1.4-39.4,6.5C329.4,12,323,20.3,323,34.5c0,11.9,4.2,17.6,11.3,22.1c9.5,5.9,25.6,6.5,34.4,6.5c-0.1,0,4.2,0,4.2,0
	c3.3,0.1,7.1,0.7,7.1,3.5c0,3.6-6,3.1-12.1,3.1C350.6,69.6,326,65,326,65v26c0,0,23,4,47,4s31.8-3,38.9-6.8
	c8.5-4.5,15.6-11.9,15.6-25.1v-2.7C427.5,33.6,394,36,386.6,36z"/>
<ellipse class="st0" cx="83" cy="46" rx="11" ry="7.5"/>
<ellipse class="st0" cx="293" cy="46" rx="11" ry="7.5"/>
</svg>
