<svg xmlns="http://www.w3.org/2000/svg" width="285.76" height="93.544" viewBox="0 0 285.76 93.544">
  <g id="グループ_6235" data-name="グループ 6235" transform="translate(2674 -3042)">
    <path id="合体_3" data-name="合体 3" d="M217.913,60.8V43.429s16.443,3.045,28.013,3.045c4.051,0,8.083.391,8.083-2.042,0-1.862-2.487-2.25-4.714-2.315-.026,0-2.856,0-2.817,0-5.872,0-16.668-.38-23.006-4.323-4.785-2.977-7.565-6.783-7.565-14.739,0-9.461,4.29-15.033,12.445-18.734C235.771.95,244.082,0,254.676,0c20.569,0,28.743,3.34,28.743,3.34V21.381s-17.041-2-24.46-2-10.969.505-10.969,2.339c0,1.951,3.792,2.338,10.431,2.338,4.946,0,27.337-1.585,27.337,16.24v1.823c0,8.863-4.689,13.773-10.4,16.8-4.783,2.539-10.02,4.556-26.031,4.556A209.346,209.346,0,0,1,217.913,60.8Zm-74.2,1V30.4L133.687,61.135H116.307L106.282,30.4V61.8H78.207V1.669h37.432L125,32.4l9.357-30.733h37.433V61.8ZM0,61.8V1.669H32.085V61.8ZM188.5,30.736c0-2.767,3.292-5.011,7.354-5.011s7.352,2.244,7.352,5.011-3.292,5.012-7.352,5.012S188.5,33.5,188.5,30.736Zm-140.372,0c0-2.767,3.292-5.011,7.352-5.011s7.354,2.244,7.354,5.011-3.292,5.012-7.354,5.012S48.127,33.5,48.127,30.736Z" transform="translate(-2674 3042)" fill="#2a46b7"/>
    <path id="パス_129" data-name="パス 129" d="M.616,5.988H2.06V-5.072H.616Zm10.267,0h1.428V.862A3.373,3.373,0,0,0,8.756-2.867a3.212,3.212,0,0,0-2.793,1.4V-2.708H4.52v8.7H5.964V1.18c0-1.872,1.016-2.793,2.491-2.793,1.46,0,2.428.9,2.428,2.682Zm4.11-2.38c0,1.746.873,2.38,2.412,2.38h1.3V4.766H17.643c-.889,0-1.206-.3-1.206-1.158V-1.518h2.269v-1.19H16.437V-4.9H14.993v2.19H13.866v1.19h1.127Zm9.156-5.237a2.552,2.552,0,0,1,2.745,2.634H21.4A2.693,2.693,0,0,1,24.149-1.629Zm4.062,4.935H26.656a2.39,2.39,0,0,1-2.444,1.6,2.734,2.734,0,0,1-2.825-2.729h6.95a7.828,7.828,0,0,0,.048-.873,3.986,3.986,0,0,0-4.173-4.157,4.138,4.138,0,0,0-4.3,4.475,4.189,4.189,0,0,0,4.3,4.507A3.91,3.91,0,0,0,28.211,3.306Zm1.539-1.7c0,2.7,1.793,4.522,4.126,4.522a3.634,3.634,0,0,0,3.237-1.777V6.178a2.581,2.581,0,0,1-2.7,2.84,2.7,2.7,0,0,1-2.777-1.761H30.21c.286,1.857,1.92,3.015,4.205,3.015a3.9,3.9,0,0,0,4.157-4.094V-2.708h-1.46v1.587a3.584,3.584,0,0,0-3.237-1.73A4.121,4.121,0,0,0,29.75,1.608Zm7.363.016a2.958,2.958,0,1,1-5.887-.016A2.936,2.936,0,0,1,34.161-1.6,2.979,2.979,0,0,1,37.113,1.624Zm5.348-.365c0-2.015,1.047-2.634,2.428-2.634h.381V-2.867A2.928,2.928,0,0,0,42.461-1.3V-2.708H41.016v8.7h1.444Zm3.935.349c0,2.7,1.793,4.522,4.11,4.522a3.632,3.632,0,0,0,3.253-1.761V5.988h1.46v-8.7h-1.46v1.587a3.609,3.609,0,0,0-3.237-1.73A4.121,4.121,0,0,0,46.4,1.608Zm7.363.016a2.958,2.958,0,1,1-5.887-.016A2.936,2.936,0,0,1,50.807-1.6,2.979,2.979,0,0,1,53.759,1.624ZM57.98,3.607c0,1.746.873,2.38,2.412,2.38h1.3V4.766H60.63c-.889,0-1.206-.3-1.206-1.158V-1.518h2.269v-1.19H59.424V-4.9H57.98v2.19H56.853v1.19H57.98Zm9.156-5.237a2.552,2.552,0,0,1,2.745,2.634H64.39A2.693,2.693,0,0,1,67.136-1.629ZM71.2,3.306H69.643a2.39,2.39,0,0,1-2.444,1.6,2.734,2.734,0,0,1-2.825-2.729h6.95a7.829,7.829,0,0,0,.048-.873A3.986,3.986,0,0,0,67.2-2.851a4.138,4.138,0,0,0-4.3,4.475,4.189,4.189,0,0,0,4.3,4.507A3.91,3.91,0,0,0,71.2,3.306Zm1.539-1.7c0,2.7,1.793,4.522,4.126,4.522A3.572,3.572,0,0,0,80.1,4.353V5.988h1.46V-5.755H80.1v4.6a3.792,3.792,0,0,0-3.221-1.7A4.124,4.124,0,0,0,72.737,1.608Zm7.363.016a2.958,2.958,0,1,1-5.887-.016A2.936,2.936,0,0,1,77.148-1.6,2.979,2.979,0,0,1,80.1,1.624Zm8.14,4.364h1.444v-8.2l3.666,8.2h1.016L98.015-2.2V5.988h1.444V-4.993H97.92L93.858,4.084,89.8-4.993H88.24Zm13.123-4.38c0,2.7,1.793,4.522,4.11,4.522a3.632,3.632,0,0,0,3.253-1.761V5.988h1.46v-8.7h-1.46v1.587a3.609,3.609,0,0,0-3.237-1.73A4.121,4.121,0,0,0,101.363,1.608Zm7.363.016a2.958,2.958,0,1,1-5.887-.016A2.936,2.936,0,0,1,105.775-1.6,2.979,2.979,0,0,1,108.726,1.624Zm4.221,1.984c0,1.746.873,2.38,2.412,2.38h1.3V4.766H115.6c-.889,0-1.206-.3-1.206-1.158V-1.518h2.269v-1.19h-2.269V-4.9h-1.444v2.19h-1.127v1.19h1.127ZM122.1-1.629a2.552,2.552,0,0,1,2.745,2.634h-5.49A2.693,2.693,0,0,1,122.1-1.629Zm4.062,4.935H124.61a2.39,2.39,0,0,1-2.444,1.6,2.734,2.734,0,0,1-2.825-2.729h6.95a7.829,7.829,0,0,0,.048-.873,3.986,3.986,0,0,0-4.173-4.157,4.138,4.138,0,0,0-4.3,4.475,4.189,4.189,0,0,0,4.3,4.507A3.91,3.91,0,0,0,126.165,3.306Zm3.523-2.047c0-2.015,1.047-2.634,2.428-2.634h.381V-2.867A2.928,2.928,0,0,0,129.688-1.3V-2.708h-1.444v8.7h1.444Zm4.475,4.729h1.444v-8.7h-1.444Zm.746-10.108a.962.962,0,0,0,.952-.984.962.962,0,0,0-.952-.984.969.969,0,0,0-.984.984A.969.969,0,0,0,134.909-4.12Zm2.618,5.728c0,2.7,1.793,4.522,4.11,4.522a3.632,3.632,0,0,0,3.253-1.761V5.988h1.46v-8.7h-1.46v1.587a3.609,3.609,0,0,0-3.237-1.73A4.121,4.121,0,0,0,137.527,1.608Zm7.363.016A2.958,2.958,0,1,1,139,1.608,2.936,2.936,0,0,1,141.938-1.6,2.979,2.979,0,0,1,144.89,1.624Zm3.9,4.364h1.444V-5.755h-1.444Zm15.329-3.015c0-4.094-5.966-2.317-5.966-5.173,0-1.19.936-1.809,2.126-1.777a2,2,0,0,1,2.142,1.6h1.587c-.175-1.682-1.555-2.84-3.666-2.84-2.19,0-3.666,1.238-3.666,3.063,0,4.11,5.982,2.206,5.982,5.189,0,1.047-.825,1.841-2.222,1.841a2.049,2.049,0,0,1-2.285-1.841h-1.539c.032,1.825,1.6,3.063,3.824,3.063C162.837,6.1,164.122,4.544,164.122,2.973Zm9.838-5.681h-1.444V2.068c0,1.872-1,2.793-2.491,2.793-1.46,0-2.428-.9-2.428-2.666v-4.9h-1.428V2.386a3.392,3.392,0,0,0,3.57,3.729A3.2,3.2,0,0,0,172.516,4.7V5.988h1.444Zm3.888,1.6v-1.6H176.4V10.113h1.444V4.385A3.761,3.761,0,0,0,181.1,6.131c2.333,0,4.126-1.825,4.126-4.522A4.121,4.121,0,0,0,181.1-2.851,3.673,3.673,0,0,0,177.848-1.105Zm5.9,2.713a2.965,2.965,0,1,1-5.9.016A2.988,2.988,0,0,1,180.8-1.6,2.939,2.939,0,0,1,183.751,1.608Zm4.824-2.713v-1.6h-1.444V10.113h1.444V4.385a3.761,3.761,0,0,0,3.253,1.746c2.333,0,4.126-1.825,4.126-4.522a4.121,4.121,0,0,0-4.126-4.459A3.673,3.673,0,0,0,188.575-1.105Zm5.9,2.713a2.965,2.965,0,1,1-5.9.016A2.988,2.988,0,0,1,191.527-1.6,2.939,2.939,0,0,1,194.478,1.608Zm3.38,4.38H199.3V-5.755h-1.444Zm7.2-1.65-2.729-7.045h-1.6l3.507,8.6-1.714,4.189h1.492l5.237-12.79H207.76ZM214.393.45a5.426,5.426,0,0,0,5.522,5.633,5.2,5.2,0,0,0,5.125-3.316h-1.73a3.49,3.49,0,0,1-3.4,2.063c-2.317,0-4.046-1.682-4.046-4.38,0-2.713,1.73-4.4,4.046-4.4a3.48,3.48,0,0,1,3.4,2.079h1.73a5.206,5.206,0,0,0-5.125-3.348A5.453,5.453,0,0,0,214.393.45Zm23.358,0A5.446,5.446,0,0,0,232.2-5.2,5.456,5.456,0,0,0,226.643.45,5.456,5.456,0,0,0,232.2,6.1,5.446,5.446,0,0,0,237.751.45Zm-9.632,0c0-2.713,1.746-4.4,4.078-4.4s4.078,1.682,4.078,4.4c0,2.7-1.745,4.4-4.078,4.4S228.119,3.147,228.119.45ZM241.067,5.1a.968.968,0,1,0-.952.984A.962.962,0,0,0,241.067,5.1Zm.666,3.158h.968l1.777-4.269h-1.587Zm4.4-13.329V5.988h5.316V4.813h-3.872V-5.072ZM252.3-3.9h3.031V5.988h1.444V-3.9h3.015V-5.072H252.3Zm12.71-1.174h-3.443V5.988h3.443c3.634,0,5.871-2.079,5.871-5.506S268.646-5.072,265.012-5.072Zm-2,9.87V-3.9h2c2.888,0,4.4,1.682,4.4,4.38S267.9,4.8,265.012,4.8Z" transform="translate(-2667.444 3125.271)" fill="#2a46b7"/>
  </g>
</svg>
